REM DIRINDEX 1\2,1\3\7,1\3\8,1\4\9,1\4\10,1\4\11,1\5\12,1\5\13,1\5\14,1\6\15,1\6\16,1\6\17
REM DIRNAME "folder01","folder02","folder03","folder04","folder05","folder06","folder07","folder08","folder09","folder10","folder11","folder12","folder13","folder14","folder15","folder16","folder17"
TITLE ""
FILE "2Q_j_1621-1634.mp3" MP3
  TRACK 01 AUDIO
    TITLE "0:"
    INDEX 01 00:00:00
  TRACK 02 AUDIO
    TITLE "9:cjc174_1083"
    INDEX 01 00:00:22
  TRACK 03 AUDIO
    TITLE "0:"
    INDEX 01 00:01:37
  TRACK 04 AUDIO
    TITLE "10:cjc174_1084"
    INDEX 01 00:02:09
  TRACK 05 AUDIO
    TITLE "0:"
    INDEX 01 00:03:38
  TRACK 06 AUDIO
    TITLE "11:cjc174_1085"
    INDEX 01 00:04:10
  TRACK 07 AUDIO
    TITLE "0:"
    INDEX 01 00:07:16
  TRACK 08 AUDIO
    TITLE "9:cjc174_1086"
    INDEX 01 00:07:67
  TRACK 09 AUDIO
    TITLE "0:"
    INDEX 01 00:09:41
  TRACK 10 AUDIO
    TITLE "10:cjc174_1087"
    INDEX 01 00:10:11
  TRACK 11 AUDIO
    TITLE "0:"
    INDEX 01 00:12:06
  TRACK 12 AUDIO
    TITLE "11:cjc174_1088"
    INDEX 01 00:12:51
  TRACK 13 AUDIO
    TITLE "0:"
    INDEX 01 00:16:01
  TRACK 14 AUDIO
    TITLE "9:cjc174_1089"
    INDEX 01 00:16:50
  TRACK 15 AUDIO
    TITLE "0:"
    INDEX 01 00:18:20
  TRACK 16 AUDIO
    TITLE "10:cjc174_1090"
    INDEX 01 00:18:67
  TRACK 17 AUDIO
    TITLE "0:"
    INDEX 01 00:22:35
  TRACK 18 AUDIO
    TITLE "11:cjc174_1091"
    INDEX 01 00:23:05
  TRACK 19 AUDIO
    TITLE "0:"
    INDEX 01 00:26:68
  TRACK 20 AUDIO
    TITLE "9:cjc174_1092"
    INDEX 01 00:27:40
  TRACK 21 AUDIO
    TITLE "0:"
    INDEX 01 00:28:52
  TRACK 22 AUDIO
    TITLE "10:cjc174_1093"
    INDEX 01 00:29:24
  TRACK 23 AUDIO
    TITLE "0:"
    INDEX 01 00:32:10
  TRACK 24 AUDIO
    TITLE "11:cjc174_1094"
    INDEX 01 00:32:55
  TRACK 25 AUDIO
    TITLE "0:"
    INDEX 01 00:35:73
  TRACK 26 AUDIO
    TITLE "9:cjc174_1095"
    INDEX 01 00:36:47
  TRACK 27 AUDIO
    TITLE "0:"
    INDEX 01 00:37:62
  TRACK 28 AUDIO
    TITLE "10:cjc174_1096"
    INDEX 01 00:38:40
  TRACK 29 AUDIO
    TITLE "0:"
    INDEX 01 00:42:62
  TRACK 30 AUDIO
    TITLE "11:cjc174_1097"
    INDEX 01 00:43:32
  TRACK 31 AUDIO
    TITLE "0:"
    INDEX 01 00:47:63
  TRACK 32 AUDIO
    TITLE "9:cjc174_1098"
    INDEX 01 00:48:35
  TRACK 33 AUDIO
    TITLE "0:"
    INDEX 01 00:49:70
  TRACK 34 AUDIO
    TITLE "10:cjc174_1099"
    INDEX 01 00:50:42
  TRACK 35 AUDIO
    TITLE "0:"
    INDEX 01 00:52:25
  TRACK 36 AUDIO
    TITLE "11:cjc174_1100"
    INDEX 01 00:52:70
  TRACK 37 AUDIO
    TITLE "0:"
    INDEX 01 00:55:52
  TRACK 38 AUDIO
    TITLE "9:cjc174_1101"
    INDEX 01 00:56:26
  TRACK 39 AUDIO
    TITLE "0:"
    INDEX 01 00:57:46
  TRACK 40 AUDIO
    TITLE "10:cjc174_1102"
    INDEX 01 00:58:16
  TRACK 41 AUDIO
    TITLE "0:"
    INDEX 01 01:01:02
  TRACK 42 AUDIO
    TITLE "11:cjc174_1103"
    INDEX 01 01:01:47
  TRACK 43 AUDIO
    TITLE "0:"
    INDEX 01 01:04:36
  TRACK 44 AUDIO
    TITLE "9:cjc174_1104"
    INDEX 01 01:05:16
  TRACK 45 AUDIO
    TITLE "0:"
    INDEX 01 01:06:48
  TRACK 46 AUDIO
    TITLE "10:cjc174_1105"
    INDEX 01 01:07:18
  TRACK 47 AUDIO
    TITLE "0:"
    INDEX 01 01:08:61
  TRACK 48 AUDIO
    TITLE "11:cjc174_1106"
    INDEX 01 01:09:31
  TRACK 49 AUDIO
    TITLE "0:"
    INDEX 01 01:13:43
  TRACK 50 AUDIO
    TITLE "9:cjc174_1107"
    INDEX 01 01:14:13
  TRACK 51 AUDIO
    TITLE "0:"
    INDEX 01 01:15:32
  TRACK 52 AUDIO
    TITLE "10:cjc174_1108"
    INDEX 01 01:16:04
  TRACK 53 AUDIO
    TITLE "0:"
    INDEX 01 01:18:34
  TRACK 54 AUDIO
    TITLE "11:cjc174_1109"
    INDEX 01 01:19:04
  TRACK 55 AUDIO
    TITLE "0:"
    INDEX 01 01:22:43
  TRACK 56 AUDIO
    TITLE "9:cjc174_1110"
    INDEX 01 01:23:23
  TRACK 57 AUDIO
    TITLE "0:"
    INDEX 01 01:24:72
  TRACK 58 AUDIO
    TITLE "10:cjc174_1111"
    INDEX 01 01:25:42
  TRACK 59 AUDIO
    TITLE "0:"
    INDEX 01 01:27:25
  TRACK 60 AUDIO
    TITLE "11:cjc174_1112"
    INDEX 01 01:27:72
  TRACK 61 AUDIO
    TITLE "0:"
    INDEX 01 01:31:25
  TRACK 62 AUDIO
    TITLE "9:cjc174_1113"
    INDEX 01 01:31:72
  TRACK 63 AUDIO
    TITLE "0:"
    INDEX 01 01:33:00
  TRACK 64 AUDIO
    TITLE "10:cjc174_1114"
    INDEX 01 01:33:55
  TRACK 65 AUDIO
    TITLE "0:"
    INDEX 01 01:35:21
  TRACK 66 AUDIO
    TITLE "11:cjc174_1115"
    INDEX 01 01:35:66
  TRACK 67 AUDIO
    TITLE "0:"
    INDEX 01 01:39:26
  TRACK 68 AUDIO
    TITLE "9:cjc174_1116"
    INDEX 01 01:39:73
  TRACK 69 AUDIO
    TITLE "0:"
    INDEX 01 01:41:04
  TRACK 70 AUDIO
    TITLE "10:cjc174_1117"
    INDEX 01 01:41:58
  TRACK 71 AUDIO
    TITLE "0:"
    INDEX 01 01:44:41
  TRACK 72 AUDIO
    TITLE "11:cjc174_1118"
    INDEX 01 01:45:11
  TRACK 73 AUDIO
    TITLE "0:"
    INDEX 01 01:48:02
  TRACK 74 AUDIO
    TITLE "9:cjc174_1119"
    INDEX 01 01:48:49
  TRACK 75 AUDIO
    TITLE "0:"
    INDEX 01 01:50:18
  TRACK 76 AUDIO
    TITLE "10:cjc174_1120"
    INDEX 01 01:50:63
  TRACK 77 AUDIO
    TITLE "0:"
    INDEX 01 01:54:57
  TRACK 78 AUDIO
    TITLE "11:cjc174_1121"
    INDEX 01 01:55:27
  TRACK 79 AUDIO
    TITLE "0:"
    INDEX 01 01:59:13
  TRACK 80 AUDIO
    TITLE "9:cjc174_1122"
    INDEX 01 01:59:58
  TRACK 81 AUDIO
    TITLE "0:"
    INDEX 01 02:01:24
  TRACK 82 AUDIO
    TITLE "10:cjc174_1123"
    INDEX 01 02:01:71
  TRACK 83 AUDIO
    TITLE "0:"
    INDEX 01 02:04:30
  TRACK 84 AUDIO
    TITLE "11:cjc174_1124"
    INDEX 01 02:05:02
  TRACK 85 AUDIO
    TITLE "0:"
    INDEX 01 02:08:42
